<?xml version="1.0" encoding="utf-8"?>
<!-- Generator: Adobe Illustrator 16.0.0, SVG Export Plug-In . SVG Version: 6.00 Build 0)  -->
<!DOCTYPE svg PUBLIC "-//W3C//DTD SVG 1.1//EN" "http://www.w3.org/Graphics/SVG/1.1/DTD/svg11.dtd">
<svg version="1.1" id="Layer_1" xmlns="http://www.w3.org/2000/svg" xmlns:xlink="http://www.w3.org/1999/xlink" x="0px" y="0px"
	 width="28.348px" height="28.348px" viewBox="0 0 28.348 28.348" enable-background="new 0 0 28.348 28.348" xml:space="preserve">
<path fill-rule="evenodd" clip-rule="evenodd" fill="#181616" d="M24.86,14.439c0,4.72-3.059,8.722-7.301,10.138
	c-0.543,0.104-0.735-0.228-0.735-0.514c0-0.351,0.013-1.503,0.013-2.932c0-0.997-0.341-1.648-0.725-1.979
	c2.38-0.265,4.879-1.168,4.879-5.273c0-1.167-0.414-2.12-1.099-2.867c0.11-0.271,0.478-1.357-0.105-2.828
	c0,0-0.896-0.287-2.937,1.096c-0.854-0.237-1.768-0.355-2.675-0.36c-0.909,0.004-1.822,0.123-2.675,0.36
	C9.458,7.897,8.561,8.184,8.561,8.184c-0.581,1.471-0.214,2.558-0.104,2.828c-0.684,0.747-1.1,1.701-1.1,2.867
	c0,4.095,2.495,5.012,4.868,5.281c-0.306,0.268-0.582,0.738-0.679,1.429c-0.609,0.273-2.157,0.745-3.11-0.888
	c0,0-0.564-1.025-1.637-1.102c0,0-1.043-0.013-0.073,0.649c0,0,0.7,0.329,1.187,1.563c0,0,0.627,2.078,3.6,1.433
	c0.005,0.892,0.014,1.563,0.014,1.817c0,0.283-0.195,0.613-0.729,0.515c-4.247-1.413-7.309-5.418-7.309-10.139
	c0-5.902,4.785-10.687,10.686-10.687C20.075,3.752,24.86,8.536,24.86,14.439z"/>
</svg>
