<?xml version="1.0" encoding="utf-8"?>
<!-- Generator: Adobe Illustrator 16.0.0, SVG Export Plug-In . SVG Version: 6.00 Build 0)  -->
<!DOCTYPE svg PUBLIC "-//W3C//DTD SVG 1.1//EN" "http://www.w3.org/Graphics/SVG/1.1/DTD/svg11.dtd">
<svg version="1.1" id="Layer_1" xmlns="http://www.w3.org/2000/svg" xmlns:xlink="http://www.w3.org/1999/xlink" x="0px" y="0px"
	 width="28.348px" height="28.348px" viewBox="0 0 28.348 28.348" enable-background="new 0 0 28.348 28.348" xml:space="preserve">
<path d="M21.206,3.819h1.521v3.548h3.562v1.49h-3.562v3.58h-1.521v-3.58h-3.549v-1.49h3.549V3.819z M16.545,21.789
	c-1.165,2.087-3.938,3.018-6.883,3.028c-3.658-0.016-5.965-1.691-6.087-3.974c-0.157-2.948,2.869-4.353,5.603-4.672
	c0.765-0.09,1.449-0.076,2.093-0.029c-0.969-0.638-1.33-1.936-0.835-2.802c0.128-0.226,0.046-0.147-0.197-0.111
	c-2.236,0.338-4.54-1.122-5.079-3.327c-0.273-1.12-0.103-2.289,0.323-3.205c0.926-1.989,2.984-3.093,5.269-3.093
	c2.376,0,4.576,0.001,6.906,0.02l-1.634,1.058h-1.859c0.786,0.549,1.388,1.339,1.719,2.22c0.354,0.938,0.402,1.977,0.044,2.934
	c-0.339,0.902-1.025,1.68-2.033,2.27c-0.574,0.336-0.863,0.761-0.895,1.17c-0.095,1.192,1.362,2.059,2.202,2.687
	C17.044,17.342,17.763,19.603,16.545,21.789z M11.792,12.354c1.596-0.442,2.045-2.115,1.753-3.881
	c-0.443-2.694-2.392-4.339-4.213-3.771c-1.54,0.478-2.199,2.062-1.562,4.558C8.352,11.535,10.157,12.806,11.792,12.354z
	 M13.03,17.485c-0.296-0.187-0.582-0.383-0.856-0.584c-0.517-0.017-1.041-0.059-1.559-0.042c-1.864,0.062-4.119,0.938-4.441,2.639
	c-0.604,3.19,2.66,4.15,5.085,4.003c2.272-0.138,3.599-1.228,3.756-2.61C15.145,19.744,14.634,18.502,13.03,17.485z"/>
</svg>
