<?xml version="1.0" encoding="utf-8"?>
<!-- Generator: Adobe Illustrator 16.0.0, SVG Export Plug-In . SVG Version: 6.00 Build 0)  -->
<!DOCTYPE svg PUBLIC "-//W3C//DTD SVG 1.1//EN" "http://www.w3.org/Graphics/SVG/1.1/DTD/svg11.dtd">
<svg version="1.1" id="Layer_1" xmlns="http://www.w3.org/2000/svg" xmlns:xlink="http://www.w3.org/1999/xlink" x="0px" y="0px"
	 width="28.348px" height="28.348px" viewBox="0 0 28.348 28.348" enable-background="new 0 0 28.348 28.348" xml:space="preserve">
<path fill-rule="evenodd" clip-rule="evenodd" d="M5.249,2.494h16.64c1.581,0,2.874,1.292,2.874,2.874v16.64
	c0,1.581-1.293,2.874-2.874,2.874H5.249c-1.581,0-2.874-1.293-2.874-2.874V5.367C2.375,3.786,3.668,2.494,5.249,2.494L5.249,2.494z
	 M18.683,4.981c-0.555,0-1.007,0.453-1.007,1.008v2.413c0,0.555,0.452,1.008,1.007,1.008h2.53c0.555,0,1.008-0.453,1.008-1.008
	V5.989c0-0.555-0.453-1.008-1.008-1.008H18.683L18.683,4.981z M22.233,11.962h-1.971c0.187,0.608,0.286,1.253,0.286,1.92
	c0,3.724-3.115,6.742-6.958,6.742c-3.843,0-6.958-3.019-6.958-6.742c0-0.667,0.101-1.312,0.287-1.92H4.863v9.456
	c0,0.49,0.4,0.891,0.89,0.891h15.59c0.49,0,0.891-0.4,0.891-0.891V11.962L22.233,11.962z M13.59,9.282
	c-2.483,0-4.496,1.951-4.496,4.357s2.013,4.358,4.496,4.358c2.484,0,4.497-1.952,4.497-4.358S16.074,9.282,13.59,9.282z"/>
</svg>
