<?xml version="1.0" encoding="utf-8"?>
<!-- Generator: Adobe Illustrator 16.0.0, SVG Export Plug-In . SVG Version: 6.00 Build 0)  -->
<!DOCTYPE svg PUBLIC "-//W3C//DTD SVG 1.1//EN" "http://www.w3.org/Graphics/SVG/1.1/DTD/svg11.dtd">
<svg version="1.1" id="Layer_1" xmlns="http://www.w3.org/2000/svg" xmlns:xlink="http://www.w3.org/1999/xlink" x="0px" y="0px"
	 width="28.348px" height="28.348px" viewBox="0 0 28.348 28.348" enable-background="new 0 0 28.348 28.348" xml:space="preserve">
<path d="M15.074,12.966c0.008-0.012,0.018-0.024,0.023-0.036v0.036H15.074z M26.106,3.605v21.14c0,0.794-0.666,1.438-1.484,1.438
	H3.724c-0.817,0-1.481-0.644-1.481-1.438V3.605c0-0.794,0.664-1.44,1.481-1.44h20.897C25.44,2.165,26.106,2.811,26.106,3.605z
	 M9.346,11.351H5.642v11.141h3.704V11.351z M9.588,7.904C9.565,6.812,8.785,5.98,7.518,5.98c-1.267,0-2.094,0.832-2.094,1.924
	c0,1.071,0.803,1.927,2.045,1.927h0.023C8.785,9.83,9.588,8.974,9.588,7.904z M22.701,16.106c0-3.424-1.827-5.017-4.266-5.017
	c-1.965,0-2.845,1.08-3.338,1.841v-1.579h-3.703c0.049,1.044,0,11.141,0,11.141h3.703V16.27c0-0.331,0.024-0.665,0.122-0.901
	c0.269-0.667,0.878-1.356,1.9-1.356c1.341,0,1.878,1.022,1.878,2.521v5.96h3.703V16.106z"/>
</svg>
