<?xml version="1.0" encoding="utf-8"?>
<!-- Generator: Adobe Illustrator 16.0.0, SVG Export Plug-In . SVG Version: 6.00 Build 0)  -->
<!DOCTYPE svg PUBLIC "-//W3C//DTD SVG 1.1//EN" "http://www.w3.org/Graphics/SVG/1.1/DTD/svg11.dtd">
<svg version="1.1" id="Layer_1" xmlns="http://www.w3.org/2000/svg" xmlns:xlink="http://www.w3.org/1999/xlink" x="0px" y="0px"
	 width="28.348px" height="28.348px" viewBox="0 0 28.348 28.348" enable-background="new 0 0 28.348 28.348" xml:space="preserve">
<path d="M18.655,3.663H9.67c-0.486,0-0.907,0.398-0.907,0.908v19.207c0,0.487,0.398,0.906,0.907,0.906h9.007
	c0.486,0,0.906-0.398,0.906-0.906V4.571C19.561,4.084,19.163,3.663,18.655,3.663z M13.033,4.792h2.235
	c0.088,0,0.178,0.066,0.178,0.177c0,0.089-0.067,0.177-0.178,0.177h-2.235c-0.088,0-0.176-0.066-0.176-0.177
	C12.858,4.881,12.946,4.792,13.033,4.792z M14.162,23.866c-0.531,0-0.952-0.42-0.952-0.951s0.421-0.951,0.952-0.951
	c0.531,0,0.951,0.42,0.951,0.951C15.114,23.424,14.694,23.866,14.162,23.866z M18.855,20.99H9.537V6.451h9.317V20.99z"/>
</svg>
