<?xml version="1.0" encoding="utf-8"?>
<!-- Generator: Adobe Illustrator 16.0.0, SVG Export Plug-In . SVG Version: 6.00 Build 0)  -->
<!DOCTYPE svg PUBLIC "-//W3C//DTD SVG 1.1//EN" "http://www.w3.org/Graphics/SVG/1.1/DTD/svg11.dtd">
<svg version="1.1" id="Layer_1" xmlns="http://www.w3.org/2000/svg" xmlns:xlink="http://www.w3.org/1999/xlink" x="0px" y="0px"
	 width="28.348px" height="28.348px" viewBox="0 0 28.348 28.348" enable-background="new 0 0 28.348 28.348" xml:space="preserve">
<path fill="#010101" d="M24.548,7.738c-0.764,0.34-1.584,0.567-2.445,0.67c0.879-0.526,1.555-1.361,1.872-2.355
	c-0.822,0.488-1.732,0.842-2.703,1.034c-0.775-0.828-1.882-1.344-3.107-1.344c-2.351,0-4.257,1.906-4.257,4.256
	c0,0.333,0.04,0.658,0.111,0.97c-3.537-0.179-6.674-1.873-8.773-4.449C4.878,7.15,4.667,7.882,4.667,8.661
	c0,1.477,0.752,2.78,1.895,3.544c-0.698-0.023-1.354-0.215-1.928-0.532c-0.002,0.017-0.002,0.035-0.002,0.053
	c0,2.062,1.469,3.783,3.415,4.174c-0.357,0.097-0.733,0.147-1.121,0.147c-0.275,0-0.542-0.026-0.802-0.075
	c0.542,1.69,2.114,2.922,3.977,2.957c-1.458,1.14-3.292,1.82-5.286,1.82c-0.345,0-0.683-0.021-1.016-0.06
	c1.884,1.209,4.122,1.913,6.525,1.913c7.83,0,12.113-6.487,12.113-12.112c0-0.185-0.004-0.368-0.013-0.551
	C23.257,9.341,23.978,8.592,24.548,7.738z"/>
</svg>
