<?xml version="1.0" encoding="utf-8"?>
<!-- Generator: Adobe Illustrator 16.0.0, SVG Export Plug-In . SVG Version: 6.00 Build 0)  -->
<!DOCTYPE svg PUBLIC "-//W3C//DTD SVG 1.1//EN" "http://www.w3.org/Graphics/SVG/1.1/DTD/svg11.dtd">
<svg version="1.1" id="Layer_1" xmlns="http://www.w3.org/2000/svg" xmlns:xlink="http://www.w3.org/1999/xlink" x="0px" y="0px"
	 width="28.348px" height="28.348px" viewBox="0 0 28.348 28.348" enable-background="new 0 0 28.348 28.348" xml:space="preserve">
<path d="M14.174,4.677c-5.236,0-9.497,4.261-9.497,9.497c0,5.236,4.26,9.496,9.497,9.496c5.235,0,9.496-4.26,9.496-9.496
	C23.67,8.938,19.409,4.677,14.174,4.677z M21.525,18.03c-0.002,0-0.004-0.003-0.007-0.003H19.56c0.289-0.989,0.49-2.09,0.545-3.274
	h2.349C22.371,15.932,22.049,17.033,21.525,18.03z M14.801,22.45v-3.267h3.118c-0.609,1.454-1.321,2.517-1.726,3.054
	C15.743,22.351,15.278,22.413,14.801,22.45z M12.199,22.251c-0.401-0.529-1.122-1.598-1.736-3.067h3.183v3.276
	C13.151,22.427,12.667,22.366,12.199,22.251z M6.823,18.03c-0.524-0.996-0.848-2.098-0.931-3.277h2.383
	c0.055,1.185,0.255,2.285,0.545,3.274H6.829C6.826,18.027,6.824,18.03,6.823,18.03z M6.877,10.218
	c0.005,0.001,0.01,0.003,0.014,0.003h1.967c-0.365,1.174-0.536,2.301-0.58,3.375H5.892C5.978,12.376,6.321,11.239,6.877,10.218z
	 M13.646,5.886v3.178h-3.111c0.439-0.98,1.021-1.986,1.786-3.007C12.75,5.96,13.194,5.917,13.646,5.886z M16.07,6.071
	c0.761,1.017,1.34,2.017,1.776,2.994h-3.045V5.898C15.234,5.93,15.659,5.975,16.07,6.071z M18.296,10.221
	c0.398,1.177,0.59,2.305,0.638,3.375h-4.133v-3.375H18.296z M13.646,10.221v3.375H9.445c0.05-1.071,0.241-2.199,0.641-3.375H13.646z
	 M9.442,14.752h4.204v3.274h-3.608C9.725,17.05,9.502,15.949,9.442,14.752z M14.801,18.027v-3.274h4.137
	c-0.061,1.197-0.284,2.298-0.595,3.274H14.801z M20.1,13.596c-0.042-1.074-0.213-2.202-0.579-3.375h1.935
	c0.004,0,0.009-0.002,0.014-0.003c0.555,1.021,0.899,2.159,0.984,3.379H20.1L20.1,13.596z M20.715,9.065H19.09
	c-0.308-0.753-0.683-1.518-1.16-2.296C19.022,7.326,19.966,8.107,20.715,9.065z M10.471,6.74C9.985,7.528,9.601,8.302,9.29,9.065
	H7.631C8.393,8.092,9.357,7.298,10.471,6.74z M7.549,19.184h1.661c0.354,0.924,0.759,1.711,1.135,2.355
	C9.246,20.966,8.292,20.166,7.549,19.184z M18.051,21.512c0.372-0.64,0.771-1.418,1.119-2.328h1.626
	C20.065,20.151,19.129,20.94,18.051,21.512z"/>
</svg>
